<?xml version="1.0" encoding="UTF-8"?>
<svg width="115" height="120" viewBox="0 0 115 120" version="1.1" xmlns="http://www.w3.org/2000/svg" xmlns:xlink="http://www.w3.org/1999/xlink">
    <title>Infiniti logo light</title>
    <defs>
        <filter id="filter-1">
            <feColorMatrix in="SourceGraphic" type="matrix" values="0 0 0 0 1.000000 0 0 0 0 1.000000 0 0 0 0 1.000000 0 0 0 1.000000 0"></feColorMatrix>
        </filter>
    </defs>
    <g id="•-Symbols" stroke="none" stroke-width="1" fill="none" fill-rule="evenodd">
        <g id="Nav/HP/1500" transform="translate(-45.000000, 0.000000)">
            <g id="InfinitiLogo_USCAN_RGB_V1-Copy" transform="translate(45.000000, 0.000000)" filter="url(#filter-1)">
                <g transform="translate(0.000000, 34.000000)">
                    <path d="M43.1473722,19.3352347 C39.3582651,19.013381 32.7730615,16.5258259 32.7730615,12.1865729 C32.7730615,6.68181234 42.3340712,1.58017704 54.3888967,1.58017704 C67.0487444,1.58017704 76.011183,6.68181234 76.011183,12.1865729 C76.011183,16.5258259 69.4517839,18.9819806 65.6566865,19.3042961 C64.6111455,17.9637777 54.3888967,4.35264431 54.3888967,4.35264431 C54.3888967,4.35264431 44.126559,18.0727555 43.1473722,19.3352347 Z M73.4076983,23.9926472 C78.4344974,21.5221776 80.8108108,17.4151949 80.8108108,13.7912237 C80.8108108,6.01409288 69.9614218,0 54.3888967,0 C38.8195972,0 27.972973,6.01409288 27.972973,13.7912237 C27.972973,17.4151949 30.347904,21.5221776 35.3765463,23.9926472 C40.0397791,26.2844119 46.6406497,27.0800417 47.5935712,27.1959459 L54.3888967,7.42018262 L61.2538021,27.1959459 C62.2048805,27.0800417 68.7417007,26.2844119 73.4076983,23.9926472 Z" id="Fill-1" fill="#000000"></path>
                    <g id="INFINITI" transform="translate(0.000000, 39.628378)" fill="#000000">
                        <path d="M19.4372817,9.26021959 C19.4372817,9.26021959 16.090873,0.581873701 16.0146627,0.355489865 C15.9316071,0.123278326 15.7499802,2.07041591e-14 15.4068056,2.07041591e-14 L12.2114484,2.07041591e-14 L12.2114484,11.2743633 L14.3649603,11.2743633 L14.3649603,2.13518061 C14.3649603,2.13518061 17.661627,10.7001104 17.7487897,10.9211149 C17.8231746,11.1457056 18.0299008,11.2743633 18.3128373,11.2743633 L21.5889683,11.2743633 L21.5889683,2.07041591e-14 L19.4372817,2.07041591e-14 L19.4372817,9.26021959 Z" id="Fill-2"></path>
                        <path d="M30.7661508,11.2743633 L33.2979762,11.2743633 C33.2979762,11.2743633 33.293869,6.72247921 33.293869,6.47681913 L37.8619246,6.47681913 L37.8619246,4.41695036 L33.2979762,4.42098493 L33.2979762,2.07466216 L37.9280952,2.07466216 L37.9280952,2.07041591e-14 L30.7661508,2.07041591e-14 L30.7661508,11.2743633 Z" id="Fill-3"></path>
                        <polygon id="Fill-4" points="89.3527183 2.16880198 92.1802579 2.16880198 92.1802579 11.2743633 94.7577183 11.2743633 94.7577183 2.16880198 97.5770437 2.16880198 97.5770437 2.07041591e-14 89.3527183 2.07041591e-14"></polygon>
                        <polygon id="Fill-5" points="46.8465278 11.2743633 49.5727579 11.2743633 49.5727579 0.00179313929 46.8465278 0.00179313929"></polygon>
                        <polygon id="Fill-6" points="77.9125 11.2743633 80.6410119 11.2743633 80.6410119 0.00179313929 77.9125 0.00179313929"></polygon>
                        <polygon id="Fill-7" points="106.24996 11.2743633 108.965694 11.2743633 108.965694 0.00179313929 106.24996 0.00179313929"></polygon>
                        <polygon id="Fill-8" points="-1.92526771e-13 11.2743633 2.72805556 11.2743633 2.72805556 0.00179313929 -1.92526771e-13 0.00179313929"></polygon>
                        <path d="M66.3376587,2.07041591e-14 L66.3376587,9.26021959 C66.3376587,9.26021959 62.9894246,0.581873701 62.9127579,0.355489865 C62.827877,0.123278326 62.6480754,2.07041591e-14 62.3071825,2.07041591e-14 L59.11,2.07041591e-14 L59.11,11.2743633 L61.2635119,11.2743633 L61.2635119,2.13518061 C61.2635119,2.13518061 64.5702183,10.7001104 64.6491667,10.9211149 C64.7230952,11.1457056 64.9362103,11.2743633 65.2072817,11.2743633 L68.4934524,11.2743633 L68.4934524,2.07041591e-14 L66.3376587,2.07041591e-14 Z" id="Fill-9"></path>
                        <path d="M113.320179,9.85778326 C113.46256,9.85778326 113.629127,9.8299896 113.629127,9.62377859 C113.629127,9.46239605 113.521429,9.40591216 113.306944,9.40591216 L113.072837,9.40591216 L113.072837,9.85778326 L113.320179,9.85778326 Z M113.443393,10.0433732 L114.017024,10.549935 L113.668373,10.549935 L113.112083,10.0716151 L113.072837,10.0716151 L113.072837,10.549935 L112.80496,10.549935 L112.80496,9.17773519 L113.402778,9.17773519 C113.66381,9.17773519 113.894266,9.28711668 113.894266,9.61212318 C113.894266,9.8299896 113.728155,10.0079587 113.484921,10.0375455 L113.443393,10.0433732 Z M113.314702,8.67744932 C112.628353,8.67744932 112.065218,9.22390852 112.065218,9.89947375 C112.065218,10.5665216 112.628353,11.1134291 113.314702,11.1134291 C113.999226,11.1134291 114.564187,10.5665216 114.564187,9.89947375 C114.564187,9.22390852 113.999226,8.67744932 113.314702,8.67744932 Z M113.314702,11.3989865 C112.455853,11.3989865 111.751706,10.7234213 111.751706,9.89947375 C111.751706,9.07507796 112.455853,8.39323675 113.314702,8.39323675 C114.171726,8.39323675 114.874504,9.06611227 114.874504,9.89947375 C114.874504,10.7234213 114.171726,11.3989865 113.314702,11.3989865 Z" id="Fill-25"></path>
                    </g>
                </g>
            </g>
        </g>
    </g>
</svg>